<svg width="39" height="35" viewBox="0 0 39 35" fill="none" xmlns="http://www.w3.org/2000/svg">
<path d="M35.547 0.00318359C34.9856 0.0276018 34.4705 0.18905 34.0179 0.367418C33.5999 0.532069 32.0985 1.16309 29.7078 2.16582C27.3172 3.16855 24.1493 4.49804 20.7727 5.91819C14.0195 8.75849 6.43059 11.9535 2.54205 13.5899C2.40851 13.6455 1.8662 13.8115 1.26723 14.269C0.666875 14.7276 0 15.7227 0 16.8111C0 17.689 0.438273 18.5832 0.967497 19.0951C1.49672 19.6071 2.03307 19.8464 2.48134 20.0247V20.0209C3.99661 20.6246 8.52169 22.4353 9.59908 22.8665C9.98125 24.0117 11.6218 28.9144 12.0121 30.1473H12.0083C12.2842 31.02 12.5531 31.5887 12.9265 32.0634C13.1132 32.3007 13.3361 32.5158 13.6095 32.6856C13.7143 32.7508 13.8305 32.8013 13.9471 32.8487C13.9634 32.8556 13.9801 32.8574 13.9965 32.8639L13.9509 32.8525C13.9847 32.8661 14.0151 32.8862 14.0496 32.8981C14.1057 32.9174 14.1447 32.9168 14.2203 32.9322C14.4864 33.0141 14.7521 33.0688 14.9981 33.0688C16.0541 33.0688 16.7016 32.4959 16.7016 32.4959L16.7434 32.4655L21.3039 28.6069L26.8888 33.7745C26.9908 33.9185 27.79 35 29.6395 35C30.7432 35 31.6157 34.4537 32.174 33.8807C32.7323 33.3078 33.08 32.7215 33.2364 31.9268L33.2401 31.923C33.3648 31.2816 38.7112 4.4347 38.7112 4.4347L38.6999 4.48023C38.8663 3.73749 38.9154 3.01921 38.7188 2.28723C38.5223 1.55526 37.9918 0.840922 37.353 0.466064C36.7141 0.0912067 36.1083 -0.0212354 35.547 0.00318359ZM34.7806 4.25637C34.5693 5.31708 29.78 29.3779 29.484 30.8872L21.4177 23.4242L15.9656 28.034L17.4756 22.1304C17.4756 22.1304 27.8928 11.5858 28.5203 10.9719C29.0254 10.4805 29.1311 10.3082 29.1311 10.1372C29.1311 9.90995 29.0142 9.74644 28.7441 9.74644C28.5013 9.74644 28.1715 9.97913 27.9967 10.0879C25.7751 11.473 16.3126 16.8654 11.6593 19.5125C11.3792 19.4002 7.1749 17.7119 4.90957 16.8073C8.939 15.1114 15.8461 12.2054 22.279 9.49983C25.655 8.07992 28.8219 6.74923 31.2103 5.74746C33.2264 4.90184 34.2781 4.46399 34.7806 4.25637ZM29.4271 31.1642H29.4309L29.4271 31.1755C29.4295 31.163 29.4252 31.174 29.4271 31.1642Z" fill="#006666"/>
</svg>
